<?xml version="1.0" encoding="iso-8859-1"?>
<!-- Generator: Adobe Illustrator 18.0.0, SVG Export Plug-In . SVG Version: 6.00 Build 0)  -->
<!DOCTYPE svg PUBLIC "-//W3C//DTD SVG 1.1//EN" "http://www.w3.org/Graphics/SVG/1.1/DTD/svg11.dtd">
<svg version="1.1" id="Capa_1" xmlns="http://www.w3.org/2000/svg" xmlns:xlink="http://www.w3.org/1999/xlink" x="0px" y="0px"
	 viewBox="0 0 203 203" style="enable-background:new 0 0 203 203;" xml:space="preserve">
<g>
	<circle style="fill:#E44326;" cx="101.5" cy="101.5" r="101.5"/>
	<g>
		<path style="fill:#D99F1A;" d="M70.027,100.917c0,2.397,1.943,4.342,4.341,4.342h57.17c2.398,0,4.342-1.944,4.342-4.342V47.828
			c0-2.397-1.943-4.341-4.342-4.341h-57.17c-2.397,0-4.341,1.943-4.341,4.341V100.917z"/>
		<path style="fill:#F0AF1D;" d="M53.083,163.841c0,2.39,1.937,4.326,4.326,4.326h91.089c2.39,0,4.325-1.937,4.325-4.326V71.432
			c0-2.391-1.935-4.326-4.325-4.326H57.409c-2.39,0-4.326,1.936-4.326,4.326V163.841z"/>
		<g>
			<path style="fill:#FFFFFF;" d="M84.449,129.456c0-1.986,1.612-3.6,3.601-3.6h29.797c1.989,0,3.601,1.613,3.601,3.6v38.711H84.449
				V129.456z"/>
			<rect x="102.048" y="125.845" style="fill:#E44326;" width="1.8" height="42.359"/>
		</g>
		<g>
			<g>
				<path style="fill:#FFFFFF;" d="M127.768,91.67c0,1.034,0.84,1.871,1.872,1.871h10.918c1.034,0,1.872-0.837,1.872-1.871V80.753
					c0-1.033-0.838-1.872-1.872-1.872H129.64c-1.032,0-1.872,0.839-1.872,1.872V91.67z"/>
				<path style="fill:#FFFFFF;" d="M106.139,91.79c0,1.035,0.837,1.872,1.87,1.872h10.918c1.034,0,1.872-0.837,1.872-1.872V80.872
					c0-1.032-0.838-1.87-1.872-1.87h-10.918c-1.033,0-1.87,0.838-1.87,1.87V91.79z"/>
				<path style="fill:#FFFFFF;" d="M84.508,91.91c0,1.034,0.838,1.873,1.871,1.873h10.917c1.034,0,1.872-0.839,1.872-1.873V80.994
					c0-1.033-0.838-1.872-1.872-1.872H86.379c-1.033,0-1.871,0.839-1.871,1.872V91.91z"/>
				<path style="fill:#FFFFFF;" d="M62.877,92.031c0,1.033,0.838,1.872,1.872,1.872h10.917c1.034,0,1.872-0.839,1.872-1.872V81.113
					c0-1.034-0.838-1.871-1.872-1.871H64.749c-1.034,0-1.872,0.837-1.872,1.871V92.031z"/>
			</g>
			<g>
				<path style="fill:#FFFFFF;" d="M116.341,61.624c0,0.924,0.749,1.674,1.673,1.674h9.764c0.925,0,1.674-0.75,1.674-1.674V51.86
					c0-0.923-0.749-1.674-1.674-1.674h-9.764c-0.924,0-1.673,0.751-1.673,1.674V61.624z"/>
				<path style="fill:#FFFFFF;" d="M96.998,61.73c0,0.925,0.748,1.674,1.673,1.674h9.763c0.924,0,1.675-0.749,1.675-1.674v-9.763
					c0-0.924-0.751-1.673-1.675-1.673h-9.763c-0.925,0-1.673,0.749-1.673,1.673V61.73z"/>
				<path style="fill:#FFFFFF;" d="M77.654,61.838c0,0.926,0.748,1.674,1.673,1.674h9.763c0.925,0,1.675-0.748,1.675-1.674v-9.762
					c0-0.926-0.75-1.674-1.675-1.674h-9.763c-0.925,0-1.673,0.748-1.673,1.674V61.838z"/>
			</g>
			<g>
				<path style="fill:#FFFFFF;" d="M127.768,112.461c0,1.031,0.84,1.869,1.872,1.869h10.918c1.034,0,1.872-0.838,1.872-1.869
					v-10.919c0-1.034-0.838-1.873-1.872-1.873H129.64c-1.032,0-1.872,0.839-1.872,1.873V112.461z"/>
				<path style="fill:#FFFFFF;" d="M106.139,112.58c0,1.033,0.837,1.872,1.87,1.872h10.918c1.034,0,1.872-0.839,1.872-1.872v-10.919
					c0-1.032-0.838-1.871-1.872-1.871h-10.918c-1.033,0-1.87,0.839-1.87,1.871V112.58z"/>
				<path style="fill:#FFFFFF;" d="M84.508,112.699c0,1.034,0.838,1.872,1.871,1.872h10.917c1.034,0,1.872-0.838,1.872-1.872
					v-10.916c0-1.035-0.838-1.872-1.872-1.872H86.379c-1.033,0-1.871,0.837-1.871,1.872V112.699z"/>
				<path style="fill:#FFFFFF;" d="M62.877,112.82c0,1.033,0.838,1.871,1.872,1.871h10.917c1.034,0,1.872-0.838,1.872-1.871v-10.917
					c0-1.035-0.838-1.872-1.872-1.872H64.749c-1.034,0-1.872,0.837-1.872,1.872V112.82z"/>
				<path style="fill:#FFFFFF;" d="M62.877,134.451c0,1.035,0.838,1.871,1.872,1.871h10.917c1.034,0,1.872-0.836,1.872-1.871
					v-10.918c0-1.032-0.838-1.871-1.872-1.871H64.749c-1.034,0-1.872,0.839-1.872,1.871V134.451z"/>
				<path style="fill:#FFFFFF;" d="M62.877,156.081c0,1.033,0.838,1.872,1.872,1.872h10.917c1.034,0,1.872-0.839,1.872-1.872
					v-10.918c0-1.033-0.838-1.871-1.872-1.871H64.749c-1.034,0-1.872,0.838-1.872,1.871V156.081z"/>
				<path style="fill:#FFFFFF;" d="M128.369,135.052c0,1.033,0.838,1.872,1.871,1.872h10.918c1.035,0,1.872-0.839,1.872-1.872
					v-10.917c0-1.034-0.837-1.871-1.872-1.871H130.24c-1.033,0-1.871,0.837-1.871,1.871V135.052z"/>
				<path style="fill:#FFFFFF;" d="M128.369,154.52c0,1.034,0.838,1.872,1.871,1.872h10.918c1.035,0,1.872-0.838,1.872-1.872
					v-10.917c0-1.034-0.837-1.873-1.872-1.873H130.24c-1.033,0-1.871,0.839-1.871,1.873V154.52z"/>
			</g>
		</g>
		<g>
			<g>
				<polygon style="fill:#F0AF1D;" points="102.954,28.796 100.612,33.541 95.375,34.303 99.165,37.995 98.27,43.211 
					102.954,40.748 107.637,43.211 106.743,37.995 110.531,34.303 105.296,33.541 				"/>
				<polygon style="fill:#F0AF1D;" points="121.672,28.796 119.329,33.541 114.093,34.303 117.883,37.995 116.987,43.211 
					121.672,40.748 126.354,43.211 125.46,37.995 129.249,34.303 124.014,33.541 				"/>
				<polygon style="fill:#F0AF1D;" points="84.235,28.796 81.894,33.541 76.657,34.303 80.446,37.995 79.553,43.211 84.235,40.748 
					88.919,43.211 88.024,37.995 91.814,34.303 86.578,33.541 				"/>
			</g>
		</g>
	</g>
</g>
<g>
</g>
<g>
</g>
<g>
</g>
<g>
</g>
<g>
</g>
<g>
</g>
<g>
</g>
<g>
</g>
<g>
</g>
<g>
</g>
<g>
</g>
<g>
</g>
<g>
</g>
<g>
</g>
<g>
</g>
</svg>
